<svg width="1000" height="145" viewBox="0 0 1000 145" fill="none" xmlns="http://www.w3.org/2000/svg">
<path d="M28.0462 39.8329C28.0462 29.8661 42.5457 24.8126 58.4386 24.8126C74.3314 24.8126 84.8974 29.9185 94.7928 39.6408L113.279 23.4662C101.39 8.02605 79.4997 0 58.6502 0C19.1032 0 1.6228 17.1712 1.6228 39.8329C1.6228 65.0302 22.6839 75.7667 47.52 81.8343L71.5621 87.692C87.4551 91.5915 91.8296 95.5082 91.8296 103.902C91.8296 112.889 82.4983 120.496 61.0315 120.496C39.5646 120.496 28.9812 114.393 18.1331 102.188L0 118.747C9.06653 129.274 28.1698 144.329 60.2377 144.329C90.0303 144.329 118.059 129.484 118.059 103.115C118.059 75.382 97.1919 67.9505 77.9299 63.0718L54.0817 57.0217C34.6081 52.1431 28.064 49.3978 28.064 39.8329M217.755 85.2091H186.393L202.074 32.6638L217.755 85.2091ZM236.013 142.633H263.988L215.956 2.99011H188.175L139.544 142.65H167.731L178.65 108.868H224.899L236.013 142.65V142.633ZM321.755 28.5721H399.244V2.99011H294.945V142.65H321.774V89.7205H381.571V65.1176H321.774V28.5895L321.755 28.5721ZM458.724 28.5721H536.213V2.99011H431.914V142.65H458.743V89.7205H518.538V65.1176H458.743V28.5895L458.724 28.5721ZM658.875 46.7399C658.875 57.6688 653.708 68.4226 633.053 68.4226H594.899V27.4005H633.634C649.527 27.4005 658.859 34.0452 658.859 46.7399M687.663 142.633L664.415 84.8243C678.314 77.0081 684.875 63.9286 684.875 46.3554C684.875 22.7142 669.371 2.99011 632.222 2.99011H568.846V142.65H594.864V91.469H640.76L660.623 142.65H687.646L687.663 142.633ZM823.361 71.5351C823.361 107.276 802.706 119.971 782.632 119.971C764.165 119.971 740.915 107.661 740.915 72.5143C740.915 41.6516 760.195 25.2497 782.632 25.2497C805.069 25.2497 823.361 38.7313 823.361 71.5351ZM850.173 71.1504C850.173 28.9567 825.338 0.244803 782.632 0.244803C739.927 0.244803 714.086 30.3206 714.086 71.3427C714.086 112.365 738.517 144.399 782.632 144.399C826.748 144.399 850.173 112.172 850.173 71.1504ZM1000 142.633V2.99011H973.171V97.1346L912.793 2.99011H883.193V142.65H910.005V47.5268L970.402 142.65H1000V142.633Z" fill="#FBFAF7"/>
</svg>
